<?xml version="1.0" encoding="utf-8"?>
<!-- Generator: Adobe Illustrator 16.0.0, SVG Export Plug-In . SVG Version: 6.00 Build 0)  -->
<!DOCTYPE svg PUBLIC "-//W3C//DTD SVG 1.1//EN" "http://www.w3.org/Graphics/SVG/1.1/DTD/svg11.dtd">
<svg version="1.1" id="Capa_1" xmlns="http://www.w3.org/2000/svg" xmlns:xlink="http://www.w3.org/1999/xlink" x="0px" y="0px"
	 width="146px" height="119px" viewBox="0 0 146 119" enable-background="new 0 0 146 119" xml:space="preserve">
<rect x="83" y="13" opacity="0.5" width="49" height="53"/>
<rect x="82" y="12" fill="#FFEE58" width="48" height="53"/>
<rect x="82.565" y="60" opacity="0.5" fill="#827717" width="47.57" height="0"/>
<path opacity="0.5" d="M97.146,100.331L71.172,74.358l-0.675,0.673l-6.141-6.141c7.729-10.307,6.909-24.995-2.466-34.37
	c-10.276-10.276-26.938-10.276-37.214,0c-10.277,10.276-10.277,26.938,0,37.214c9.375,9.375,24.062,10.196,34.369,2.467l6.141,6.142
	l-0.673,0.674l25.972,25.974c1.775,1.775,4.654,1.775,6.431,0l0.229-0.229C98.921,104.986,98.921,102.106,97.146,100.331z
	 M29.097,67.313c-7.822-7.822-7.822-20.549,0-28.371s20.551-7.822,28.373,0s7.822,20.549,0,28.371
	C49.647,75.137,36.919,75.137,29.097,67.313z"/>
<g>
	<rect x="82" y="60" opacity="0.6" fill="#827717" width="48" height="5"/>
	<g>
		<circle opacity="0.2" fill="#FFFFFF" cx="41.356" cy="52.401" r="22.357"/>
		<g>
			
				<rect x="59.785" y="68.476" transform="matrix(0.707 -0.7072 0.7072 0.707 -34.1917 66.8183)" fill="#DADBDA" width="7.51" height="12.39"/>
			
				<rect x="60.726" y="70.747" transform="matrix(0.708 -0.7062 0.7062 0.708 -36.4465 65.7372)" fill="#D6D8D7" width="1.09" height="12.39"/>
			
				<rect x="58.369" y="71.34" transform="matrix(-0.707 -0.7072 0.7072 -0.707 58.1282 171.3791)" fill="#D6D8D7" width="12.39" height="4.618"/>
			
				<rect x="59.405" y="71.769" transform="matrix(-0.707 -0.7072 0.7072 -0.707 60.6273 170.3441)" fill="#CFCFCF" width="12.388" height="1.69"/>
			<path fill="#E2A248" d="M27.503,38.634c7.822-7.822,20.551-7.822,28.371,0c7.823,7.822,7.823,20.551,0,28.373
				c-7.82,7.821-20.549,7.821-28.371,0C19.681,59.185,19.681,46.456,27.503,38.634 M23.083,34.214
				c-10.277,10.275-10.277,26.938,0,37.213c10.275,10.276,26.937,10.276,37.213,0c10.276-10.275,10.276-26.937,0-37.214
				C50.02,23.938,33.358,23.938,23.083,34.214L23.083,34.214z"/>
			<path fill="#DB8B1A" d="M23.083,34.214c-10.277,10.275-10.277,26.938,0,37.213c10.275,10.276,26.937,10.276,37.213,0
				c10.276-10.275,10.276-26.937,0-37.214C50.02,23.938,33.358,23.938,23.083,34.214z M58.146,69.276
				c-9.089,9.089-23.824,9.089-32.912,0c-9.09-9.088-9.09-23.824,0-32.912c9.088-9.09,23.823-9.09,32.912,0
				C67.235,45.452,67.233,60.188,58.146,69.276z"/>
			<path fill="#EA7676" d="M62.92,80.709l25.972,25.973c1.776,1.775,4.654,1.775,6.431,0l0.228-0.229
				c1.776-1.775,1.776-4.654,0-6.43L69.577,74.05L62.92,80.709z"/>
			<path fill="#E24948" d="M63.567,80.061l-0.647,0.648l25.972,25.973c0.726,0.726,1.637,1.15,2.578,1.283L63.567,80.061z"/>
			<path fill="#E24948" d="M66.036,77.592l29.183,29.184c0.034-0.031,0.071-0.06,0.104-0.094l0.228-0.229
				c1.776-1.775,1.776-4.654,0-6.43L69.577,74.05L66.036,77.592z"/>
			<path fill="#DB1C1A" d="M68.028,75.602l28.719,28.719c0.363-1.491-0.031-3.131-1.197-4.297L69.577,74.05L68.028,75.602z"/>
		</g>
		<path opacity="0.5" fill="#FFFFFF" d="M27.815,43.462c0,0,0.059-0.122,0.18-0.337c0.118-0.216,0.299-0.527,0.543-0.909
			c0.125-0.189,0.26-0.399,0.408-0.628c0.182-0.213,0.381-0.445,0.604-0.689c0.22-0.247,0.468-0.501,0.729-0.774
			c0.264-0.275,0.567-0.494,0.881-0.752c0.312-0.256,0.65-0.509,1.002-0.772c0.373-0.221,0.758-0.458,1.166-0.683
			c0.203-0.114,0.41-0.229,0.619-0.345c0.214-0.104,0.439-0.193,0.666-0.284c0.455-0.184,0.926-0.355,1.406-0.518
			c0.994-0.223,2.021-0.456,3.09-0.475c1.059-0.103,2.135-0.027,3.197-0.024c1.062,0.112,2.121,0.178,3.138,0.424
			c1.029,0.157,1.993,0.532,2.93,0.814c0.452,0.192,0.897,0.382,1.332,0.567c0.216,0.095,0.433,0.178,0.638,0.28
			c0.201,0.112,0.398,0.222,0.596,0.332c0.389,0.217,0.767,0.43,1.133,0.634c0.344,0.239,0.676,0.47,0.994,0.691
			c0.312,0.228,0.631,0.417,0.891,0.654c0.264,0.231,0.516,0.449,0.752,0.655c0.232,0.204,0.451,0.396,0.654,0.573
			c0.183,0.198,0.35,0.379,0.502,0.543c0.598,0.653,0.939,1.026,0.939,1.026l-0.239,0.24c0,0-0.398-0.295-1.097-0.813
			c-0.172-0.128-0.363-0.27-0.572-0.424c-0.222-0.135-0.462-0.28-0.719-0.437c-0.254-0.153-0.523-0.318-0.809-0.491
			c-0.281-0.18-0.614-0.305-0.937-0.474c-0.325-0.157-0.665-0.322-1.017-0.492c-0.366-0.136-0.745-0.275-1.134-0.418
			c-0.192-0.071-0.389-0.144-0.587-0.217c-0.201-0.068-0.41-0.115-0.617-0.174c-0.416-0.11-0.839-0.225-1.271-0.342
			c-0.888-0.133-1.778-0.339-2.708-0.378c-0.92-0.117-1.863-0.06-2.793-0.057c-0.93,0.113-1.855,0.196-2.734,0.456
			c-0.893,0.179-1.718,0.525-2.549,0.719c-0.402,0.145-0.799,0.278-1.195,0.391c-0.195,0.064-0.398,0.104-0.59,0.171
			c-0.189,0.067-0.377,0.136-0.562,0.202c-0.369,0.137-0.741,0.25-1.099,0.369c-0.349,0.14-0.681,0.289-1.011,0.413
			c-0.167,0.064-0.33,0.126-0.488,0.188c-0.162,0.058-0.322,0.114-0.459,0.188c-0.286,0.131-0.562,0.26-0.83,0.372
			c-0.268,0.116-0.526,0.222-0.77,0.32c-0.242,0.123-0.463,0.237-0.664,0.34c-0.406,0.204-0.732,0.354-0.961,0.45
			c-0.227,0.098-0.354,0.144-0.354,0.144L27.815,43.462z"/>
	</g>
	<g>
		<g>
			<g>
				<path fill="#FFFF00" d="M115.857,59.561c0,0,11.997,0.366,13.964-14.079l0.192-0.706V12.141H82.603V59.85h32.563L115.857,59.561
					z"/>
			</g>
			<g>
				<rect x="82.603" y="12.141" fill="#FFEA00" width="47.412" height="4.771"/>
			</g>
			<g>
				<path fill="#F9A825" d="M129.867,43.86c0,0,1.284,16.049-15.726,16.049c0,0,7.617-1.946,7.617-8.19
					C121.759,51.719,129.867,51.145,129.867,43.86z"/>
			</g>
		</g>
	</g>
	<rect x="87" y="22" opacity="0.6" width="38" height="4"/>
	<rect x="87" y="31" opacity="0.6" width="24" height="5"/>
	<rect x="111" y="45" opacity="0.6" width="10" height="5"/>
</g>
</svg>
