<?xml version="1.0" encoding="utf-8"?>
<!-- Generator: Adobe Illustrator 16.0.0, SVG Export Plug-In . SVG Version: 6.00 Build 0)  -->
<!DOCTYPE svg PUBLIC "-//W3C//DTD SVG 1.1//EN" "http://www.w3.org/Graphics/SVG/1.1/DTD/svg11.dtd">
<svg version="1.1" id="Capa_1" xmlns="http://www.w3.org/2000/svg" xmlns:xlink="http://www.w3.org/1999/xlink" x="0px" y="0px"
	 width="143px" height="71px" viewBox="0 0 143 71" enable-background="new 0 0 143 71" xml:space="preserve">
<g>
	<g>
		<g>
			<g opacity="0.5">
				<path fill="#263238" d="M128,50.797c0,4.603-3.336,8.203-7.993,8.203H24.798C20.142,59,16,55.399,16,50.797V27.09
					c0-4.603,4.142-8.09,8.798-8.09h95.209c4.657,0,7.993,3.487,7.993,8.09V50.797z"/>
			</g>
			<g id="al_aire_3_">
				<g>
					<path fill="#263238" d="M126.03,48.073c0,4.582-3.759,8.87-8.396,8.87H22.836c-4.636,0-8.394-4.288-8.394-8.87V24.469
						c0-4.584,3.758-8.299,8.394-8.299h94.798c4.638,0,8.396,3.715,8.396,8.299V48.073z"/>
				</g>
				<g>
					<path fill="#546E7A" d="M124.169,46.643c0,4.583-3.729,8.298-8.33,8.298H21.771c-4.602,0-8.331-3.715-8.331-8.298V23.037
						c0-4.582,3.729-8.297,8.331-8.297h94.068c4.602,0,8.33,3.715,8.33,8.297V46.643L124.169,46.643z"/>
				</g>
				<g>
					<path fill="#212121" d="M121.022,45.642c0,3.476-2.817,6.294-6.295,6.294H23.024c-3.477,0-6.295-2.818-6.295-6.294V24.469
						c0-3.478,2.818-6.296,6.295-6.296h91.703c3.478,0,6.295,2.818,6.295,6.296V45.642z"/>
				</g>
				<g>
					<path fill="#212121" d="M119.021,43.925c0,3.477-2.816,6.294-6.29,6.294H24.981c-3.474,0-6.249-2.817-6.249-6.294V26.186
						c0-3.477,2.775-6.296,6.249-6.296h87.749c3.474,0,6.29,2.819,6.29,6.296V43.925z"/>
				</g>
				<g enable-background="new    ">
					<path fill="#FF3D00" d="M46.894,39.346h-5.821l-1.217,3.498h-2.714l5.675-15.023h2.343l5.686,15.023h-2.724L46.894,39.346z
						 M41.806,37.24h4.354l-2.175-6.231L41.806,37.24z"/>
					<path fill="#FF3D00" d="M55.158,40.76h6.821v2.084h-9.432V27.82h2.61V40.76z"/>
					<path fill="#FF3D00" d="M77.655,39.346h-5.82l-1.219,3.498h-2.713l5.674-15.023h2.345l5.685,15.023h-2.725L77.655,39.346z
						 M72.567,37.24h4.354l-2.176-6.231L72.567,37.24z"/>
					<path fill="#FF3D00" d="M86.065,42.844h-2.602V27.82h2.602V42.844z"/>
					<path fill="#FF3D00" d="M94.794,37.055h-2.91v5.789h-2.609V27.82h5.283c0.859,0,1.627,0.097,2.301,0.293
						c0.673,0.195,1.244,0.484,1.708,0.866c0.464,0.383,0.816,0.855,1.058,1.42s0.36,1.218,0.36,1.96
						c0,1.005-0.242,1.846-0.727,2.523s-1.161,1.199-2.028,1.562l3.375,6.265v0.134h-2.797L94.794,37.055z M91.884,34.96h2.684
						c0.469,0,0.877-0.062,1.229-0.186c0.35-0.124,0.644-0.296,0.877-0.515c0.234-0.221,0.41-0.482,0.525-0.785
						c0.118-0.304,0.176-0.637,0.176-1.001c0-0.386-0.055-0.734-0.164-1.048c-0.111-0.313-0.279-0.581-0.507-0.805
						s-0.517-0.396-0.872-0.517c-0.354-0.12-0.779-0.181-1.273-0.181h-2.674V34.96z"/>
					<path fill="#FF3D00" d="M111.243,36.137h-6.171v4.623h7.214v2.084h-9.824V27.82h9.752v2.104h-7.142v4.149h6.171V36.137z"/>
				</g>
				<g>
					<circle fill="#B71C1C" cx="28.46" cy="34.769" r="4.864"/>
				</g>
				<g>
					<circle fill="#FF5722" cx="28.46" cy="34.769" r="4.149"/>
				</g>
				<g>
					<path fill="#FFFFFF" d="M28.46,31.192c0.793,0,1.431,0.64,1.431,1.431c0,0.79-0.638,1.431-1.431,1.431
						c-0.789,0-1.43-0.641-1.43-1.431C27.03,31.832,27.671,31.192,28.46,31.192z"/>
				</g>
				<g>
					<path fill="#FF3D00" d="M112.367,48.503H24.097c-2.246,0-4.076-1.83-4.076-4.077V26.399c0-2.247,1.83-4.077,4.076-4.077h88.271
						c2.248,0,4.077,1.83,4.077,4.077v18.026C116.444,46.673,114.615,48.503,112.367,48.503z M24.097,23.324
						c-1.695,0-3.075,1.379-3.075,3.075v18.026c0,1.696,1.38,3.076,3.075,3.076h88.271c1.694,0,3.075-1.38,3.075-3.076V26.399
						c0-1.696-1.381-3.075-3.075-3.075H24.097z"/>
				</g>
				<g>
					<path fill="#FFFFFF" d="M115.839,14.597H21.771c-4.602,0-8.331,3.715-8.331,8.299V46.5c0,2.51,1.12,4.758,2.888,6.279
						c-1.262-1.455-2.029-3.349-2.029-5.421V23.753c0-4.583,3.744-8.298,8.31-8.298h93.356c4.566,0,8.205,3.715,8.205,8.298v-0.857
						C124.169,18.312,120.44,14.597,115.839,14.597z"/>
				</g>
				<g opacity="0.5" enable-background="new    ">
					<path fill="#212121" d="M122.782,18.454c0.522,1.085,0.815,2.3,0.815,3.583v23.604c0,4.583-3.729,8.298-8.33,8.298H21.198
						c-2.9,0-5.453-1.477-6.943-3.714c1.342,2.788,4.203,4.715,7.516,4.715h94.068c4.602,0,8.33-3.715,8.33-8.298V23.037
						C124.169,21.343,123.659,19.769,122.782,18.454z"/>
				</g>
				<g opacity="0.3" enable-background="new    ">
					<path fill="#FFFFFF" d="M117.829,18.886c1.906,1.089,3.193,3.151,3.193,5.517v21.332c0,3.502-2.817,6.345-6.295,6.345H23.024
						c-3.135,0-5.734-2.288-6.215-5.293h-0.223c0,3.29,2.625,5.865,5.865,5.865h93.277c3.239,0,5.865-2.646,5.865-5.909v-22.34
						C121.595,21.884,120.031,19.736,117.829,18.886z"/>
				</g>
				<g opacity="0.5" enable-background="new    ">
					<path fill="#263238" d="M115.156,17.744H22.165c-3.238,0-5.864,2.626-5.864,5.866v21.888c0,1.973,0.974,3.717,2.466,4.779
						c-1.251-1.15-2.037-2.801-2.037-4.636V24.469c0-3.478,2.818-6.296,6.295-6.296h91.703c3.478,0,6.295,2.818,6.295,6.296V23.61
						C121.022,20.37,118.397,17.744,115.156,17.744z"/>
				</g>
			</g>
		</g>
	</g>
</g>
</svg>
