<?xml version="1.0" encoding="utf-8"?>
<!-- Generator: Adobe Illustrator 16.0.0, SVG Export Plug-In . SVG Version: 6.00 Build 0)  -->
<!DOCTYPE svg PUBLIC "-//W3C//DTD SVG 1.1//EN" "http://www.w3.org/Graphics/SVG/1.1/DTD/svg11.dtd">
<svg version="1.1" id="Capa_1" xmlns="http://www.w3.org/2000/svg" xmlns:xlink="http://www.w3.org/1999/xlink" x="0px" y="0px"
	 width="117px" height="108px" viewBox="0 0 117 108" enable-background="new 0 0 117 108" xml:space="preserve">
<g>
	<g opacity="0.3">
		<path fill="#263238" d="M110.603,52.36l-0.027-0.027c-2.151-2.15-5.638-2.15-7.787,0l-3.701,3.701l0,0l-34.781,34.78l0.006,0.005
			l-3.818,11.605l11.605-3.817l0.021,0.021l32.838-32.838l0.002-0.002l5.643-5.641C112.753,57.997,112.753,54.511,110.603,52.36z"/>
	</g>
	<g opacity="0.3">
		<path fill="#263238" d="M65,7H19.118C13.587,7,8,11.681,8,17.295V78.02c0,5.387,5,9.793,11,10.142V97h-0.378l4.737-5.052
			L28,97.505V88h37V7z"/>
	</g>
	<g>
		<path fill="#0277BD" d="M62,5H16.284C10.67,5,6,10.189,6,15.805v60.725C6,82.144,10.67,87,16.284,87H62V5z"/>
	</g>
	<g>
		<path fill="#546E7A" d="M62,68H15.758c-4.575,0-8.284,3.732-8.284,8.5s3.709,8.5,8.284,8.5H62V68z"/>
	</g>
	<g>
		<path fill="#CFD8DC" d="M62,68H15.758c-4.575,0-8.284,3.732-8.284,8.5s3.709,8.5,8.284,8.5H62V68z"/>
	</g>
	<g>
		<polygon fill="#F4511E" points="20.439,90.703 25,96.013 25,76 15,76 15,96 15.781,96 		"/>
	</g>
	<g>
		<g>
			<polygon fill="#FBE9E7" points="70.336,97.252 58.731,101.069 62.55,89.464 			"/>
		</g>
		<g>
			<polygon fill="#212121" points="63.763,99.483 58.627,101.174 60.316,96.036 			"/>
		</g>
		<g>
			<path fill="#FF8A65" d="M95.385,64.406c-2.151-2.151-2.151-5.638,0-7.788l5.64-5.641c2.15-2.15,5.638-2.15,7.787,0l0.028,0.028
				c2.151,2.149,2.151,5.636,0,7.786l-5.641,5.642c-2.151,2.149-5.638,2.149-7.786,0L95.385,64.406z"/>
		</g>
		<g>
			
				<rect x="59.247" y="70.451" transform="matrix(-0.7071 0.7071 -0.7071 -0.7071 196.8484 70.4149)" fill="#FF9E00" width="49.187" height="11.051"/>
		</g>
		<g>
			
				<rect x="96.149" y="53.94" transform="matrix(-0.7071 0.7071 -0.7071 -0.7071 213.3599 30.5561)" fill="#FADD60" width="8.405" height="11.053"/>
		</g>
		<g>
			
				<rect x="98.146" y="55.757" transform="matrix(-0.7077 0.7065 -0.7065 -0.7077 211.5668 35.0416)" fill="#F6BE1A" width="0.778" height="11.051"/>
		</g>
		<g>
			
				<rect x="100.018" y="53.886" transform="matrix(-0.7071 0.7071 -0.7071 -0.7071 213.415 30.4229)" fill="#F6BE1A" width="0.778" height="11.051"/>
		</g>
		<g>
			
				<rect x="101.778" y="52.125" transform="matrix(-0.7071 0.7071 -0.7071 -0.7071 215.1761 26.1729)" fill="#F6BE1A" width="0.779" height="11.051"/>
		</g>
		<g opacity="0.5">
			<path fill="#5D4037" d="M106.79,55.559L67.663,94.687l-8.85,6.466l11.633-3.79l0.023,0.021l32.84-32.841l1.939-1.939l3.7-3.701
				c2.151-2.15,2.151-5.637,0-7.788l-0.028-0.027c-0.307-0.309-0.674-0.6-1.029-0.819C108.614,52.04,108.229,54.121,106.79,55.559z"
				/>
		</g>
		<g opacity="0.5">
			<path fill="#FFFDE7" d="M63.839,91.465l40.418-40.419c0.574-0.571,1.275-0.948,1.993-1.189c-1.698-0.286-3.476,0.252-4.784,1.562
				l-3.701,3.701l-1.939,1.939L62.984,89.899l0.005,0.004l-1.937,5.773L63.839,91.465z"/>
		</g>
	</g>
	<g>
		<rect x="44" y="5" fill="#00ACC1" width="4" height="82"/>
	</g>
	<g>
		<rect x="44" y="5" fill="#4DD0E1" width="4" height="63"/>
	</g>
	<g>
		<path fill="#FFFFFF" d="M48.682,68H62V51.724C62,51.724,60.661,64,48.682,68z"/>
	</g>
	<g>
		<path fill="#01579B" d="M62.563,51.744c-1.637,6.671-8.871,6.492-8.871,6.492c0.431,5.604-4.822,9.605-4.822,9.605l-0.213,0.107
			c7.748-1.16,13.731-7.95,13.932-16.226L62.563,51.744z"/>
	</g>
	<g opacity="0.5">
		<rect x="12.201" y="76" fill="#212121" width="16.118" height="0"/>
	</g>
</g>
</svg>
