<?xml version="1.0" encoding="utf-8"?>
<!-- Generator: Adobe Illustrator 16.0.0, SVG Export Plug-In . SVG Version: 6.00 Build 0)  -->
<!DOCTYPE svg PUBLIC "-//W3C//DTD SVG 1.1//EN" "http://www.w3.org/Graphics/SVG/1.1/DTD/svg11.dtd">
<svg version="1.1" id="Capa_1" xmlns="http://www.w3.org/2000/svg" xmlns:xlink="http://www.w3.org/1999/xlink" x="0px" y="0px"
	 width="128px" height="133px" viewBox="0 0 128 133" enable-background="new 0 0 128 133" xml:space="preserve">
<g>
	<path opacity="0.6" fill="#424242" d="M102.081,113.25h-6.906v-0.539H23.648v0.507l-10.847,4.261l10.847,4.261v0.497h71.526v-0.359
		h6.906c1.35,0,2.439-1.186,2.439-2.534v-3.665C104.521,114.328,103.431,113.25,102.081,113.25z"/>
	<g opacity="0.6">
		<path fill="#546E7A" d="M85.649,81.196c0,5.897-4.27,11.027-10.008,11.027H29.548c-5.738,0-10.572-5.13-10.572-11.027V30.4
			c0-5.898,4.834-10.422,10.572-10.422h46.094c5.738,0,10.008,4.523,10.008,10.422V81.196z"/>
	</g>
	<g>
		<path fill="#006064" d="M83.493,79.306c0,5.846-4.472,10.94-10.242,10.94H26.894c-5.771,0-10.613-5.095-10.613-10.94V28.952
			c0-5.846,4.842-10.231,10.613-10.231h46.357c5.771,0,10.242,4.386,10.242,10.231V79.306z"/>
	</g>
	<g>
		<path fill="#26A69A" d="M84.212,76.592c0,5.846-4.324,10.959-10.064,10.959H28.054c-5.738,0-10.516-5.113-10.516-10.959V26.238
			c0-5.847,4.777-10.213,10.516-10.213h46.094c5.74,0,10.064,4.366,10.064,10.213V76.592z"/>
	</g>
	<g>
		<path fill="#FFFFFF" d="M18.257,39.927v36.28c0,5.712,4.467,10.445,10.066,10.445H73.29c5.599,0,10.203-4.733,10.203-10.445
			v-36.28H18.257z"/>
	</g>
	<g>
		<circle fill="#FFFFFF" cx="36.501" cy="20.468" r="2.515"/>
	</g>
	<g>
		<circle fill="#FFFFFF" cx="65.138" cy="20.468" r="2.515"/>
	</g>
	<g>
		<path fill="#FFFFFF" d="M45.525,33.324h-2.401l-0.455,1.368h-1.455l2.473-6.642h1.269l2.486,6.642h-1.456L45.525,33.324z
			 M43.495,32.216h1.66l-0.835-2.486L43.495,32.216z"/>
		<path fill="#FFFFFF" d="M52.423,32.271c0,0.371-0.041,0.71-0.119,1.018c-0.079,0.308-0.197,0.571-0.358,0.794
			c-0.159,0.222-0.358,0.395-0.601,0.518c-0.238,0.123-0.52,0.185-0.844,0.185c-0.285,0-0.533-0.055-0.74-0.162
			c-0.209-0.108-0.389-0.259-0.541-0.453l-0.061,0.524h-1.185v-7.007h1.317V30.2c0.146-0.17,0.318-0.303,0.514-0.396
			c0.197-0.093,0.426-0.139,0.686-0.139c0.323,0,0.605,0.062,0.848,0.188s0.442,0.298,0.604,0.52
			c0.162,0.223,0.281,0.486,0.361,0.794c0.078,0.308,0.119,0.644,0.119,1.008V32.271L52.423,32.271z M51.104,32.175
			c0-0.194-0.014-0.379-0.043-0.554c-0.025-0.176-0.075-0.328-0.147-0.459c-0.071-0.131-0.169-0.234-0.288-0.31
			c-0.123-0.077-0.278-0.115-0.467-0.115c-0.222,0-0.402,0.045-0.543,0.135c-0.139,0.091-0.248,0.217-0.324,0.381v1.948
			c0.076,0.165,0.186,0.292,0.324,0.383c0.141,0.092,0.324,0.138,0.553,0.138c0.186,0,0.338-0.037,0.458-0.11
			c0.12-0.072,0.216-0.172,0.287-0.301c0.071-0.127,0.12-0.28,0.147-0.458c0.028-0.178,0.042-0.372,0.042-0.582L51.104,32.175
			L51.104,32.175z"/>
		<path fill="#FFFFFF" d="M56.009,30.993c-0.068-0.009-0.146-0.018-0.236-0.025c-0.089-0.007-0.17-0.011-0.238-0.011
			c-0.26,0-0.469,0.043-0.628,0.13s-0.278,0.213-0.354,0.376v3.23h-1.318v-4.937h1.246l0.037,0.588
			c0.123-0.212,0.277-0.379,0.461-0.499c0.182-0.12,0.395-0.18,0.639-0.18c0.068,0,0.143,0.005,0.221,0.018
			c0.076,0.013,0.141,0.026,0.189,0.042L56.009,30.993z"/>
		<path fill="#FFFFFF" d="M56.632,28.479c0-0.197,0.066-0.359,0.2-0.488c0.132-0.127,0.312-0.191,0.539-0.191
			c0.112,0,0.215,0.017,0.306,0.05c0.092,0.034,0.168,0.082,0.232,0.142c0.064,0.062,0.114,0.133,0.148,0.218
			c0.035,0.083,0.053,0.174,0.053,0.271c0,0.101-0.018,0.192-0.053,0.276c-0.034,0.084-0.084,0.156-0.148,0.217
			s-0.141,0.107-0.232,0.142c-0.091,0.033-0.193,0.05-0.306,0.05c-0.111,0-0.214-0.017-0.306-0.05
			c-0.091-0.034-0.168-0.081-0.232-0.142c-0.062-0.061-0.112-0.134-0.148-0.217C56.65,28.672,56.632,28.58,56.632,28.479z
			 M58.033,34.692H56.71v-4.936h1.323V34.692z"/>
		<path fill="#FFFFFF" d="M60.509,34.692h-1.322v-7.006h1.322V34.692z"/>
	</g>
	<path d="M35.157,77.018l1.844,4.604l1.844-4.604h0.967v5.643h-0.744v-2.197l0.068-2.371l-1.852,4.568h-0.57l-1.848-4.558
		l0.073,2.36v2.197h-0.745v-5.643H35.157L35.157,77.018z"/>
	<path d="M41.016,77.354c0-0.115,0.036-0.214,0.106-0.294c0.071-0.08,0.176-0.12,0.316-0.12c0.139,0,0.246,0.04,0.317,0.12
		c0.073,0.079,0.108,0.178,0.108,0.294s-0.035,0.214-0.108,0.291c-0.071,0.078-0.179,0.116-0.317,0.116
		c-0.141,0-0.245-0.039-0.316-0.116C41.052,77.568,41.016,77.471,41.016,77.354z M41.792,82.66h-0.718v-4.193h0.718V82.66z"/>
	<path d="M44.679,82.737c-0.293,0-0.557-0.05-0.793-0.151c-0.236-0.1-0.439-0.24-0.607-0.419c-0.168-0.181-0.297-0.395-0.387-0.642
		c-0.091-0.248-0.136-0.52-0.136-0.813v-0.163c0-0.342,0.051-0.646,0.153-0.915c0.102-0.269,0.238-0.495,0.409-0.679
		c0.17-0.183,0.364-0.323,0.585-0.42c0.219-0.097,0.447-0.146,0.686-0.146c0.3,0,0.557,0.053,0.775,0.157
		c0.217,0.104,0.396,0.248,0.537,0.433c0.141,0.183,0.244,0.4,0.311,0.65s0.102,0.523,0.102,0.817v0.322h-2.841
		c0.005,0.193,0.036,0.374,0.095,0.543c0.059,0.167,0.141,0.313,0.248,0.438s0.236,0.222,0.389,0.295
		c0.15,0.071,0.321,0.108,0.513,0.108c0.253,0,0.468-0.053,0.644-0.155c0.176-0.104,0.33-0.24,0.461-0.411l0.438,0.341
		c-0.066,0.104-0.148,0.204-0.244,0.301c-0.096,0.098-0.207,0.184-0.336,0.26c-0.127,0.076-0.273,0.138-0.439,0.183
		C45.075,82.716,44.888,82.737,44.679,82.737z M44.589,78.979c-0.145,0-0.277,0.026-0.398,0.078c-0.121,0.054-0.23,0.13-0.326,0.231
		c-0.096,0.101-0.175,0.226-0.238,0.376c-0.064,0.149-0.107,0.322-0.131,0.515h2.102v-0.054c-0.008-0.139-0.03-0.278-0.068-0.415
		c-0.037-0.137-0.096-0.26-0.174-0.368s-0.18-0.196-0.304-0.264C44.927,79.013,44.772,78.979,44.589,78.979z M44.938,76.715h0.868
		l-1.04,1.14H44.19L44.938,76.715z"/>
	<path d="M49.169,79.11c-0.062-0.011-0.119-0.018-0.171-0.021c-0.054-0.004-0.114-0.005-0.181-0.005
		c-0.248,0-0.45,0.054-0.605,0.162c-0.158,0.108-0.274,0.255-0.352,0.438v2.977h-0.717v-4.193h0.697l0.012,0.484
		c0.107-0.173,0.244-0.31,0.406-0.41c0.162-0.102,0.36-0.151,0.594-0.151c0.051,0,0.109,0.006,0.178,0.018
		c0.067,0.012,0.113,0.024,0.139,0.037V79.11z"/>
	<path d="M51.437,82.152c0.127,0,0.25-0.021,0.365-0.062s0.219-0.098,0.307-0.171c0.09-0.072,0.162-0.158,0.219-0.258
		c0.055-0.099,0.088-0.207,0.098-0.323h0.679c-0.011,0.186-0.062,0.363-0.153,0.532c-0.092,0.17-0.213,0.318-0.362,0.446
		s-0.323,0.229-0.521,0.306c-0.197,0.076-0.407,0.114-0.63,0.114c-0.314,0-0.589-0.056-0.824-0.168
		c-0.232-0.112-0.428-0.265-0.582-0.456c-0.154-0.19-0.271-0.412-0.348-0.666c-0.076-0.253-0.113-0.521-0.113-0.802v-0.163
		c0-0.281,0.037-0.549,0.113-0.803c0.077-0.253,0.193-0.475,0.348-0.666s0.349-0.343,0.58-0.456
		c0.233-0.111,0.508-0.168,0.822-0.168c0.246,0,0.469,0.039,0.67,0.116c0.199,0.078,0.373,0.185,0.518,0.319
		c0.146,0.137,0.262,0.297,0.344,0.483c0.082,0.186,0.129,0.386,0.14,0.601h-0.679c-0.01-0.13-0.041-0.25-0.091-0.362
		s-0.118-0.211-0.204-0.295c-0.084-0.084-0.188-0.15-0.304-0.199c-0.118-0.05-0.249-0.073-0.394-0.073
		c-0.222,0-0.406,0.043-0.553,0.131c-0.145,0.088-0.262,0.203-0.352,0.348c-0.09,0.143-0.152,0.304-0.188,0.483
		c-0.037,0.18-0.055,0.36-0.055,0.541v0.163c0,0.186,0.018,0.368,0.055,0.548c0.035,0.18,0.098,0.341,0.186,0.482
		c0.088,0.143,0.205,0.258,0.353,0.346C51.026,82.108,51.212,82.152,51.437,82.152z"/>
	<path d="M53.72,80.525c0-0.305,0.045-0.587,0.134-0.847c0.089-0.261,0.216-0.485,0.38-0.677s0.363-0.341,0.599-0.449
		c0.235-0.109,0.499-0.163,0.79-0.163c0.298,0,0.564,0.054,0.801,0.163c0.236,0.108,0.438,0.258,0.602,0.449
		c0.166,0.191,0.293,0.416,0.381,0.677c0.088,0.26,0.131,0.542,0.131,0.847v0.085c0,0.306-0.043,0.587-0.131,0.847
		s-0.215,0.484-0.381,0.674c-0.164,0.19-0.365,0.339-0.6,0.446c-0.235,0.107-0.5,0.16-0.794,0.16c-0.295,0-0.56-0.053-0.795-0.16
		s-0.435-0.256-0.601-0.446c-0.165-0.189-0.293-0.414-0.382-0.674s-0.134-0.541-0.134-0.847V80.525z M54.44,80.61
		c0,0.21,0.024,0.407,0.074,0.593c0.049,0.187,0.123,0.35,0.223,0.49s0.223,0.253,0.371,0.335c0.149,0.084,0.323,0.124,0.522,0.124
		c0.194,0,0.368-0.04,0.519-0.124c0.15-0.082,0.274-0.194,0.371-0.335c0.1-0.141,0.174-0.304,0.225-0.49
		c0.05-0.186,0.075-0.383,0.075-0.593v-0.085c0-0.207-0.025-0.404-0.075-0.591c-0.051-0.188-0.126-0.352-0.225-0.492
		c-0.1-0.142-0.225-0.254-0.375-0.338s-0.324-0.125-0.523-0.125c-0.195,0-0.367,0.041-0.516,0.125
		c-0.146,0.084-0.27,0.196-0.369,0.338c-0.1,0.141-0.174,0.304-0.223,0.492c-0.05,0.187-0.074,0.384-0.074,0.591V80.61z"/>
	<path d="M59.215,82.66h-0.717v-5.953h0.717V82.66z"/>
	<path d="M62.103,82.737c-0.291,0-0.557-0.05-0.793-0.151c-0.236-0.1-0.438-0.24-0.606-0.419c-0.169-0.181-0.297-0.395-0.388-0.642
		c-0.09-0.248-0.135-0.52-0.135-0.813v-0.163c0-0.342,0.051-0.646,0.152-0.915s0.238-0.495,0.408-0.679
		c0.17-0.183,0.367-0.323,0.586-0.42s0.449-0.146,0.686-0.146c0.299,0,0.559,0.053,0.775,0.157c0.218,0.104,0.396,0.248,0.537,0.433
		c0.14,0.183,0.244,0.4,0.311,0.65c0.068,0.25,0.102,0.523,0.102,0.817v0.322h-2.842c0.007,0.193,0.038,0.374,0.096,0.543
		c0.059,0.167,0.142,0.313,0.248,0.438c0.108,0.124,0.236,0.222,0.389,0.295c0.15,0.071,0.322,0.108,0.513,0.108
		c0.253,0,0.468-0.053,0.644-0.155c0.176-0.104,0.328-0.24,0.461-0.411l0.438,0.341c-0.067,0.104-0.149,0.204-0.244,0.301
		c-0.096,0.098-0.208,0.184-0.335,0.26s-0.275,0.138-0.439,0.183C62.499,82.716,62.312,82.737,62.103,82.737z M62.013,78.979
		c-0.145,0-0.277,0.026-0.398,0.078c-0.121,0.054-0.229,0.13-0.326,0.231c-0.096,0.101-0.176,0.226-0.238,0.376
		c-0.062,0.149-0.107,0.322-0.129,0.515h2.1v-0.054c-0.008-0.139-0.03-0.278-0.066-0.415c-0.037-0.137-0.097-0.26-0.176-0.368
		c-0.078-0.108-0.18-0.196-0.305-0.264C62.351,79.013,62.196,78.979,62.013,78.979z"/>
	<path d="M67.009,81.549c0-0.078-0.012-0.151-0.035-0.22s-0.068-0.133-0.139-0.194c-0.067-0.06-0.164-0.116-0.291-0.168
		c-0.127-0.051-0.294-0.099-0.5-0.143c-0.232-0.049-0.441-0.107-0.629-0.175c-0.186-0.067-0.344-0.147-0.475-0.242
		c-0.129-0.095-0.23-0.206-0.299-0.335c-0.07-0.13-0.105-0.281-0.105-0.454c0-0.165,0.037-0.322,0.109-0.471
		c0.074-0.149,0.178-0.279,0.312-0.392c0.135-0.113,0.297-0.201,0.488-0.268c0.191-0.065,0.404-0.099,0.64-0.099
		c0.251,0,0.476,0.034,0.673,0.103c0.197,0.069,0.365,0.162,0.504,0.281c0.138,0.119,0.242,0.258,0.315,0.416
		c0.071,0.159,0.108,0.329,0.108,0.51h-0.721c0-0.085-0.02-0.171-0.059-0.258s-0.096-0.164-0.17-0.232s-0.167-0.124-0.275-0.166
		c-0.108-0.043-0.234-0.064-0.376-0.064c-0.149,0-0.276,0.018-0.382,0.053c-0.105,0.034-0.189,0.081-0.258,0.14
		c-0.066,0.058-0.117,0.124-0.146,0.197c-0.031,0.073-0.047,0.148-0.047,0.227c0,0.077,0.013,0.147,0.039,0.209
		c0.025,0.062,0.074,0.118,0.147,0.169c0.071,0.05,0.171,0.097,0.296,0.14c0.125,0.042,0.287,0.086,0.486,0.13
		c0.256,0.06,0.479,0.126,0.666,0.201c0.189,0.075,0.346,0.162,0.469,0.262c0.125,0.1,0.217,0.214,0.278,0.343
		c0.06,0.129,0.091,0.279,0.091,0.449c0,0.184-0.039,0.353-0.115,0.504c-0.076,0.153-0.186,0.283-0.326,0.393
		c-0.143,0.107-0.313,0.192-0.512,0.253c-0.199,0.061-0.42,0.091-0.663,0.091c-0.28,0-0.525-0.038-0.739-0.115
		c-0.213-0.078-0.391-0.181-0.536-0.309c-0.144-0.128-0.255-0.273-0.329-0.438c-0.076-0.163-0.113-0.333-0.113-0.505h0.718
		c0.008,0.146,0.043,0.271,0.106,0.37c0.062,0.099,0.143,0.18,0.238,0.242c0.096,0.062,0.201,0.105,0.313,0.131
		c0.114,0.026,0.228,0.039,0.342,0.039c0.146,0,0.276-0.015,0.388-0.046c0.11-0.031,0.204-0.074,0.281-0.128
		c0.076-0.056,0.133-0.118,0.172-0.192C66.989,81.713,67.009,81.634,67.009,81.549z"/>
	<path d="M52.018,68.159H36.116v-2.713l7.698-8.397c0.65-0.715,1.188-1.352,1.616-1.909s0.77-1.066,1.023-1.526
		s0.433-0.891,0.536-1.292c0.103-0.4,0.155-0.801,0.155-1.202c0-0.541-0.08-1.042-0.238-1.502c-0.156-0.46-0.383-0.857-0.68-1.194
		c-0.299-0.335-0.664-0.598-1.098-0.787c-0.434-0.19-0.932-0.284-1.494-0.284c-0.682,0-1.275,0.108-1.777,0.324
		c-0.504,0.218-0.922,0.518-1.252,0.902s-0.58,0.844-0.748,1.381c-0.168,0.535-0.25,1.123-0.25,1.762h-3.947
		c0-1.04,0.176-2.018,0.527-2.932c0.352-0.915,0.869-1.714,1.551-2.396c0.684-0.683,1.521-1.222,2.518-1.617
		c0.996-0.395,2.135-0.593,3.412-0.593c1.18,0,2.23,0.155,3.15,0.463c0.92,0.309,1.697,0.745,2.332,1.308
		c0.633,0.563,1.115,1.249,1.443,2.055c0.332,0.808,0.497,1.704,0.497,2.688c0,0.737-0.12,1.465-0.357,2.186
		c-0.239,0.72-0.569,1.438-0.991,2.151c-0.422,0.715-0.926,1.433-1.51,2.152c-0.586,0.721-1.225,1.443-1.918,2.169l-5.278,5.652
		h10.98V68.159L52.018,68.159z"/>
	<path d="M65.71,68.159h-3.93V49.17l-5.799,1.981v-3.329l9.227-3.395h0.502V68.159z"/>
	<g>
		<polygon fill="#757575" points="23.108,120.295 11.449,115.714 23.108,111.134 		"/>
	</g>
	<g>
		<path fill="#BF360C" d="M103.263,117.637c0,1.349-1.095,2.442-2.443,2.442h-8.773c-1.35,0-2.443-1.094-2.443-2.442v-3.741
			c0-1.349,1.094-2.442,2.443-2.442h8.773c1.349,0,2.443,1.094,2.443,2.442V117.637z"/>
	</g>
	<g>
		<g>
			<polygon fill="#424242" points="90.503,111.094 89.063,111.094 89.063,110.375 65.341,110.375 65.341,108.757 90.503,108.757 			
				"/>
		</g>
	</g>
	<g>
		<rect x="22.391" y="110.914" fill="#424242" width="71.526" height="9.524"/>
	</g>
	<g>
		<rect x="24.188" y="110.914" fill="#212121" width="34.145" height="9.524"/>
	</g>
	<g>
		<rect x="26.345" y="110.914" fill="#BF360C" width="1.615" height="9.524"/>
	</g>
	<g>
		<rect x="31.196" y="110.914" fill="#BF360C" width="1.438" height="9.524"/>
	</g>
	<g>
		<rect x="35.869" y="110.914" fill="#BF360C" width="1.617" height="9.524"/>
	</g>
	<g>
		<rect x="40.722" y="110.914" fill="#BF360C" width="1.438" height="9.524"/>
	</g>
	<g>
		<rect x="45.214" y="110.914" fill="#BF360C" width="1.617" height="9.524"/>
	</g>
	<g opacity="0.5">
		<path d="M100.724,117.384H23.226l-0.176-0.62l-11.369-1.128l-0.192,0.088l10.902,4.251v0.464h71.526v-0.359h6.807
			c1.35,0,2.539-1.151,2.539-2.501v-2.714C103.263,116.213,102.073,117.384,100.724,117.384z"/>
	</g>
	<g opacity="0.4">
		<path fill="#FFFFFF" d="M101.539,112.293c0-0.319-0.178-0.623-0.448-0.797c-0.121-0.019-0.242-0.043-0.367-0.043h-6.807l0,0
			H22.391v0.001l-4.647,1.796h82.777C101.083,113.25,101.539,112.805,101.539,112.293z"/>
	</g>
	<rect x="36.409" y="18.9" fill="#78909C" width="29.113" height="3.235"/>
	<rect x="39.822" y="18.9" fill="#FFFFFF" width="1.438" height="3.235"/>
	<rect x="38.386" y="18.9" fill="#BDBDBD" width="1.437" height="3.235"/>
	<rect x="36.409" y="20.518" opacity="0.5" fill="#546E7A" width="29.113" height="1.618"/>
	<g>
		<g opacity="0.5">
			<path fill="#78909C" d="M117.998,30.875V11.713H89.603v28.754h18.91c-0.02,0-0.033,0.008-0.033,0.008
				c0.176,0,0.35-0.008,0.52-0.008h0.099l0.037-0.062C118.321,40.033,117.998,31.566,117.998,30.875z"/>
		</g>
		<g>
			<g>
				<path fill="#FFF59D" d="M109.106,39.818c0,0,7.23,0.253,8.416-8.452l0.116-0.393v-19.62H89.063v28.573h19.626L109.106,39.818z"
					/>
			</g>
			<g>
				<rect x="89.063" y="11.354" fill="#FFF176" width="28.575" height="2.875"/>
			</g>
			<g>
				<path fill="#FFD600" d="M117.55,30.422c0,0,0.774,9.534-9.478,9.534c0,0,4.59-1.157,4.59-4.866
					C112.662,35.09,117.55,34.749,117.55,30.422z"/>
			</g>
		</g>
		<rect x="93" y="16" opacity="0.6" fill="#37474F" width="20" height="2"/>
		<rect x="93" y="21" opacity="0.6" fill="#37474F" width="20" height="2"/>
		<rect x="93" y="29" opacity="0.6" fill="#37474F" width="20" height="2"/>
	</g>
	<g>
		<g opacity="0.5">
			<path fill="#78909C" d="M117.998,63.991V44.959H89.603v28.575h18.91c-0.02,0-0.033,0.008-0.033,0.008
				c0.176,0,0.35-0.008,0.52-0.008h0.099l0.037-0.038C118.321,73.124,117.998,64.683,117.998,63.991z"/>
		</g>
		<g>
			<g>
				<path fill="#FFFF00" d="M109.106,72.999c0,0,7.23,0.221,8.416-8.484l0.116-0.426V44.42H89.063v28.754h19.626L109.106,72.999z"/>
			</g>
			<g>
				<rect x="89.063" y="44.42" fill="#FFEA00" width="28.575" height="2.876"/>
			</g>
			<g>
				<path fill="#FFD600" d="M117.55,63.537c0,0,0.774,9.534-9.478,9.534c0,0,4.59-1.157,4.59-4.866
					C112.662,68.206,117.55,67.864,117.55,63.537z"/>
			</g>
		</g>
		<rect x="93" y="53" opacity="0.6" fill="#37474F" width="20" height="1"/>
		<rect x="93" y="57" opacity="0.6" fill="#37474F" width="20" height="2"/>
	</g>
	<g>
		<g opacity="0.5">
			<path fill="#78909C" d="M116.267,102.622l4.969-18.372l-27.409-7.413l-7.46,27.584l18.254,4.936c-0.02-0.004-0.035,0-0.035,0
				c0.171,0.047,0.34,0.083,0.504,0.128l0.095,0.025l0.046-0.026C114.194,111.523,116.087,103.289,116.267,102.622z"/>
		</g>
		<g>
			<g>
				<path fill="#B2FF59" d="M105.175,108.527c0,0,6.92,2.1,10.338-5.994l0.225-0.381l5.135-18.986l-27.583-7.461l-7.508,27.757
					l18.946,5.124L105.175,108.527z"/>
			</g>
			<g>
				
					<rect x="92.418" y="79.386" transform="matrix(-0.9653 -0.2611 0.2611 -0.9653 188.606 186.7043)" fill="#AEEA00" width="28.574" height="2.875"/>
			</g>
			<g>
				<path fill="#64DD17" d="M115.795,101.597c0,0-1.741,9.405-11.638,6.729c0,0,4.733,0.083,5.701-3.498
					C109.858,104.827,114.665,105.774,115.795,101.597z"/>
			</g>
		</g>
		
			<rect x="93.983" y="91.397" transform="matrix(0.9653 0.2611 -0.2611 0.9653 27.713 -23.8843)" opacity="0.6" fill="#37474F" width="19.532" height="1.926"/>
		
			<rect x="92.726" y="96.046" transform="matrix(0.9653 0.2611 -0.2611 0.9653 28.8814 -23.3941)" opacity="0.6" fill="#37474F" width="19.533" height="1.925"/>
		
			<rect x="96.089" y="82.97" transform="matrix(0.9653 0.261 -0.261 0.9653 25.4067 -23.4611)" opacity="0.6" fill="#37474F" width="9.905" height="1.926"/>
	</g>
</g>
</svg>
