<?xml version="1.0" encoding="utf-8"?>
<!-- Generator: Adobe Illustrator 16.0.0, SVG Export Plug-In . SVG Version: 6.00 Build 0)  -->
<!DOCTYPE svg PUBLIC "-//W3C//DTD SVG 1.1//EN" "http://www.w3.org/Graphics/SVG/1.1/DTD/svg11.dtd">
<svg version="1.1" id="Capa_1" xmlns="http://www.w3.org/2000/svg" xmlns:xlink="http://www.w3.org/1999/xlink" x="0px" y="0px"
	 width="100px" height="125px" viewBox="0 0 100 125" enable-background="new 0 0 100 125" xml:space="preserve">
<g>
	<polygon opacity="0.5" fill="#C19721" points="87.409,56.345 93.795,49.88 86.354,44.664 90.296,36.476 81.565,33.957 
		82.634,24.933 73.558,25.386 71.64,16.504 63.202,19.881 58.503,12.102 51.707,17.959 51.62,18.034 44.649,12.204 40.067,20.049 
		31.581,16.798 29.792,25.707 20.71,25.386 21.913,34.395 13.218,37.039 17.278,45.168 9.916,50.493 16.396,56.864 11.161,64.291 
		19.358,68.212 16.817,76.937 25.844,77.952 26.276,87 26.28,87 17.072,112.991 31.475,109.547 40.478,121.316 50.322,93.564 
		51.707,95.181 52.19,95.743 53.442,94.239 63.049,121.322 72.053,109.562 86.455,113.021 77.046,86.493 77.974,86.682 78.269,77.6 
		87.278,76.421 84.612,67.735 92.753,63.693 	"/>
	<g>
		<g>
			<g>
				<polygon fill="#64B5F6" points="13.072,108.021 28.485,64.563 51.892,72.865 36.478,116.323 27.475,104.562 				"/>
				<polygon fill="#1976D2" points="82.455,108.021 67.042,64.563 43.636,72.865 59.049,116.323 68.053,104.562 				"/>
			</g>
			<g>
				<path fill="#FFDE5D" d="M14.245,48.686c0-18.463,15.006-33.486,33.462-33.519v-2.208l-0.087,0.075l-6.971-5.83l-4.582,7.845
					l-8.486-3.251l-1.789,8.909l-9.082-0.321l1.203,9.009l-8.695,2.645l4.061,8.129l-7.362,5.325l6.479,6.371l-5.234,7.427
					l8.197,3.921l-2.541,8.725l9.026,1.047l0.433,9.078l8.877-1.942l3.354,8.445l7.766-4.717l5.434,6.335v-7.98
					C29.251,82.171,14.245,67.148,14.245,48.686z"/>
				<path fill="#E5B92E" d="M14.245,48.686c0,18.463,15.006,33.485,33.462,33.517V79.38c-16.901-0.032-30.638-13.788-30.638-30.694
					c0-16.907,13.736-30.663,30.638-30.695v-2.823C29.251,15.199,14.245,30.223,14.245,48.686z"/>
				<path fill="#FFDE5D" d="M18.48,48.686c0-16.129,13.106-29.25,29.227-29.281V17.99c-16.901,0.032-30.638,13.788-30.638,30.695
					c0,16.906,13.736,30.662,30.638,30.694v-1.414C31.587,77.935,18.48,64.813,18.48,48.686z"/>
				<path fill="#FFDE5D" d="M19.892,48.686c0,15.374,12.449,27.838,27.815,27.869V20.815C32.341,20.847,19.892,33.312,19.892,48.686
					z"/>
				<path fill="#FFFFFF" d="M18.48,48.686c0,16.128,13.106,29.249,29.227,29.28v-0.704c-15.732-0.032-28.522-12.838-28.522-28.576
					c0-15.74,12.79-28.545,28.522-28.577v-0.704C31.587,19.436,18.48,32.557,18.48,48.686z"/>
				<path fill="#FFFFFF" d="M19.892,48.686c0-15.374,12.449-27.839,27.815-27.87v-0.707c-15.732,0.032-28.522,12.837-28.522,28.577
					c0,15.738,12.79,28.544,28.522,28.576v-0.707C32.341,76.523,19.892,64.06,19.892,48.686z"/>
				<path fill="#E5B92E" d="M54.002,83.761l7.835,4.604l3.229-8.493l8.908,1.811l0.295-9.082l9.01-1.179l-2.666-8.686l8.141-4.042
					l-5.344-7.349l6.386-6.465l-7.44-5.216l3.941-8.188l-8.73-2.519l1.068-9.024l-9.076,0.453l-1.918-8.882l-8.438,3.377
					l-4.699-7.779l-6.796,5.857v2.208c0.019,0,0.038-0.001,0.058-0.001c18.48,0,33.518,15.037,33.518,33.52
					c0,18.481-15.037,33.519-33.518,33.519c-0.02,0-0.039-0.002-0.058-0.002v7.98l0.483,0.562L54.002,83.761z"/>
				<path fill="#C19721" d="M47.765,17.988c16.926,0,30.695,13.771,30.695,30.697c0,16.926-13.77,30.695-30.695,30.695
					c-0.02,0-0.039-0.001-0.058-0.001v2.822c0.019,0,0.038,0.002,0.058,0.002c18.48,0,33.518-15.037,33.518-33.519
					c0-18.482-15.037-33.52-33.518-33.52c-0.02,0-0.039,0.001-0.058,0.001v2.823C47.726,17.99,47.745,17.988,47.765,17.988z"/>
				<path fill="#E5B92E" d="M78.46,48.686c0-16.927-13.77-30.697-30.695-30.697c-0.02,0-0.039,0.002-0.058,0.002v1.414
					c0.019,0,0.038-0.003,0.058-0.003c16.146,0,29.284,13.137,29.284,29.284S63.911,77.97,47.765,77.97
					c-0.02,0-0.039-0.004-0.058-0.004v1.414c0.019,0,0.038,0.001,0.058,0.001C64.69,79.381,78.46,65.611,78.46,48.686z"/>
				<path fill="#E5B92E" d="M47.765,76.558c15.393,0,27.873-12.479,27.873-27.872c0-15.394-12.48-27.873-27.873-27.873
					c-0.02,0-0.039,0.003-0.058,0.003v55.739C47.726,76.555,47.745,76.558,47.765,76.558z"/>
				<path fill="#C6C6C6" d="M47.765,19.401c-0.02,0-0.039,0.003-0.058,0.003v0.704v0.707c0.019,0,0.038-0.003,0.058-0.003
					c15.393,0,27.873,12.479,27.873,27.873c0,15.393-12.48,27.872-27.873,27.872c-0.02,0-0.039-0.003-0.058-0.003v0.707v0.704
					c0.019,0,0.038,0.004,0.058,0.004c16.146,0,29.284-13.137,29.284-29.284S63.911,19.401,47.765,19.401z"/>
			</g>
			<g>
				<polygon fill="#E5B92E" points="35.073,67.086 37.921,52.69 27.077,42.798 41.649,41.059 47.707,27.69 53.864,41.013 
					68.448,42.642 57.685,52.614 60.64,66.989 47.829,59.83 				"/>
				<polygon fill="#C19721" points="47.763,47.389 27.077,42.798 37.921,52.69 				"/>
				<polygon fill="#C19721" points="47.763,47.389 35.073,67.086 47.829,59.83 60.64,66.989 				"/>
				<polygon fill="#C19721" points="47.763,47.389 68.448,42.642 57.685,52.614 				"/>
				<polygon fill="#C19721" points="47.707,27.69 47.763,47.389 53.864,41.013 				"/>
			</g>
		</g>
	</g>
</g>
</svg>
