<?xml version="1.0" encoding="utf-8"?>
<!-- Generator: Adobe Illustrator 16.0.0, SVG Export Plug-In . SVG Version: 6.00 Build 0)  -->
<!DOCTYPE svg PUBLIC "-//W3C//DTD SVG 1.1//EN" "http://www.w3.org/Graphics/SVG/1.1/DTD/svg11.dtd">
<svg version="1.1" id="Capa_1" xmlns="http://www.w3.org/2000/svg" xmlns:xlink="http://www.w3.org/1999/xlink" x="0px" y="0px"
	 width="270px" height="51px" viewBox="0 0 270 51" enable-background="new 0 0 270 51" xml:space="preserve">
<g>
	<g>
		<polygon fill-rule="evenodd" clip-rule="evenodd" points="120.938,17.968 120.938,14.536 136.96,14.536 136.96,10.186 
			115.212,10.186 115.212,31.817 136.96,31.817 136.96,27.468 120.938,27.468 120.938,22.202 134.556,22.317 134.556,17.968 
			120.938,17.968 		"/>
		<polygon fill-rule="evenodd" clip-rule="evenodd" points="165.575,31.817 155.628,20.283 164.659,10.186 157.562,10.186 
			152.144,16.244 146.92,10.186 139.819,10.186 148.311,20.536 138.218,31.817 145.315,31.817 151.701,24.673 157.562,31.817 		"/>
		<polygon fill-rule="evenodd" clip-rule="evenodd" points="57.867,10.186 57.867,31.705 79.503,31.705 79.503,27.468 
			63.705,27.468 63.705,10.186 57.867,10.186 		"/>
		<polygon fill-rule="evenodd" clip-rule="evenodd" points="7.277,10.186 7.277,14.536 15.861,14.536 15.861,31.817 21.584,31.817 
			21.584,14.536 30.168,14.536 30.168,10.186 7.277,10.186 		"/>
		<polygon fill-rule="evenodd" clip-rule="evenodd" points="81.678,10.186 81.678,31.817 87.398,31.817 87.398,14.536 
			94.497,31.817 98.616,31.817 105.941,14.536 105.941,31.817 111.779,31.817 111.779,10.186 101.593,10.186 96.557,22.661 
			91.749,10.186 81.678,10.186 		"/>
		<polygon fill-rule="evenodd" clip-rule="evenodd" points="38.408,17.968 38.408,14.536 54.321,14.536 54.321,10.186 
			32.687,10.186 32.687,31.817 54.321,31.817 54.321,27.468 38.408,27.468 38.408,22.202 51.914,22.317 51.914,17.968 
			38.408,17.968 		"/>
	</g>
	<g>
		<path fill="#0691D0" d="M183.15,17.076c-0.8-1.121-1.897-1.682-3.285-1.682c-1.495,0-2.647,0.535-3.448,1.603
			c-0.8,1.07-1.201,2.538-1.201,4.408v10.982h-5.447V4.813h2.723c0.75,0,1.39,0.27,1.925,0.802c0.531,0.535,0.8,1.177,0.8,1.923
			v6.334c0.962-1.602,2.323-2.619,4.09-3.048c1.763-0.426,3.446-0.319,5.049,0.321c1.495,0.641,2.751,1.657,3.768,3.046
			c1.014,1.392,1.522,3.313,1.522,5.771v12.425h-5.372V21.324c0-0.801-0.066-1.536-0.198-2.204
			C183.939,18.454,183.631,17.771,183.15,17.076z"/>
		<path fill="#0691D0" d="M209.199,11.064v12.504c0,3.793-0.989,6.281-2.964,7.455c-1.979,1.176-4.14,1.762-6.493,1.762
			c-2.299-0.106-4.396-0.746-6.29-1.922c-1.898-1.177-2.845-3.608-2.845-7.294V11.064h5.609V24.69c0,1.283,0.373,2.218,1.121,2.808
			c0.749,0.586,1.604,0.881,2.565,0.881c0.964,0,1.829-0.295,2.604-0.881c0.776-0.59,1.162-1.524,1.162-2.808v-10.9
			c0-0.749,0.254-1.389,0.763-1.923c0.507-0.534,1.16-0.803,1.963-0.803H209.199z"/>
		<path fill="#0691D0" d="M215.534,7.46v6.412c0.587-1.016,1.44-1.847,2.562-2.487c0.964-0.532,2.14-0.801,3.528-0.801
			c2.511,0,4.568,1.04,6.173,3.126c1.6,2.083,2.4,4.782,2.4,8.094c0,3.313-0.801,6.01-2.4,8.097
			c-0.803,1.017-1.887,1.751-3.247,2.202c-1.363,0.454-2.713,0.682-4.047,0.682c-2.565,0-4.945-0.664-7.133-2.003
			c-2.192-1.335-3.288-3.897-3.288-7.694V4.732h2.725c0.746,0,1.39,0.269,1.922,0.802C215.264,6.069,215.534,6.711,215.534,7.46z
			 M224.671,21.566c0-1.925-0.404-3.419-1.204-4.49c-0.801-1.121-1.896-1.682-3.287-1.682c-1.496,0-2.644,0.535-3.446,1.603
			c-0.801,1.123-1.199,2.644-1.199,4.569c0,2.244,0.37,3.873,1.12,4.889c0.802,1.12,1.924,1.682,3.367,1.682
			c1.495,0,2.645-0.562,3.445-1.682C224.267,25.333,224.671,23.704,224.671,21.566z"/>
	</g>
	<g>
		<path fill="#0691D0" d="M8.153,36.785h2.581c2.938,0,4.052,0.854,4.052,3.854c0,2.947-1.217,3.865-4.167,3.865H8.153V36.785z
			 M10.672,43.533c2.344,0,3.055-0.77,3.055-2.895c0-2.158-0.598-2.854-2.982-2.854H9.205v5.748H10.672z"/>
		<path fill="#0691D0" d="M15.672,41.598c0-1.979,0.803-3.021,2.853-3.021c2.052,0,2.864,1.043,2.864,3.021s-0.812,3.02-2.864,3.02
			C16.475,44.617,15.672,43.576,15.672,41.598z M20.356,41.617c0-1.331-0.467-2.072-1.832-2.072c-1.366,0-1.834,0.741-1.834,2.072
			c0,1.334,0.468,2.083,1.834,2.083C19.89,43.7,20.356,42.951,20.356,41.617z"/>
		<path fill="#0691D0" d="M22.605,38.766l0.803-0.055l0.085,0.552c0.271-0.363,0.822-0.687,2.134-0.687
			c1.835,0,2.083,0.969,2.083,2.395v3.533H26.7v-3.333c0-0.939-0.083-1.595-1.396-1.595c-1.428,0-1.677,0.719-1.677,1.719v3.209
			h-1.022V38.766z"/>
		<path fill="#0691D0" d="M28.906,41.576c0-1.762,0.564-2.989,2.521-2.989c1.21,0,1.792,0.229,2.075,0.698v-2.864h1.02v8.04
			l-0.78,0.071l-0.116-0.675c-0.365,0.51-0.988,0.749-2.229,0.749C29.46,44.606,28.906,43.355,28.906,41.576z M33.502,41.576
			c0-1.521-0.491-2.043-1.887-2.043c-1.334,0-1.677,0.783-1.677,2.043c0,1.28,0.343,2.105,1.677,2.105
			C32.979,43.682,33.502,43.106,33.502,41.576z"/>
		<path fill="#0691D0" d="M35.738,41.598c0-1.667,0.512-3.021,2.822-3.021c2.387,0,2.469,1.655,2.439,3.416h-4.281
			c0.062,1.052,0.426,1.75,1.861,1.75c0.94,0,1.398-0.238,1.846-0.572l0.543,0.707c-0.615,0.48-1.294,0.74-2.389,0.74
			C36.209,44.617,35.738,43.275,35.738,41.598z M36.729,41.098h3.312c-0.052-0.917-0.137-1.625-1.509-1.625
			C37.207,39.473,36.811,40.117,36.729,41.098z"/>
		<path fill="#0691D0" d="M44.381,41.598c0-1.667,0.512-3.021,2.824-3.021c2.386,0,2.469,1.655,2.436,3.416h-4.279
			c0.063,1.052,0.427,1.75,1.865,1.75c0.936,0,1.395-0.238,1.842-0.572l0.543,0.707c-0.615,0.48-1.29,0.74-2.385,0.74
			C44.852,44.617,44.381,43.275,44.381,41.598z M45.372,41.098h3.313c-0.053-0.917-0.137-1.625-1.511-1.625
			C45.852,39.473,45.456,40.117,45.372,41.098z"/>
		<path fill="#0691D0" d="M50.977,43.004v-6.583h0.998v6.468c0,0.543,0.084,0.719,0.647,0.719c0.009,0,0.206,0,0.226,0v0.885
			c-0.092,0.012-0.321,0.021-0.57,0.021C51.307,44.514,50.977,44.105,50.977,43.004z"/>
		<path fill="#0691D0" d="M56.033,38.711h1.097v-0.405c0-1.146,0.396-1.885,1.842-1.885h0.667v0.885h-0.541
			c-0.771,0-0.959,0.415-0.959,1v0.405h1.5v0.916h-1.5v4.877H57.13v-4.877h-1.097V38.711z"/>
		<path fill="#0691D0" d="M60.618,42.025v-3.314h1.012v3.332c0,0.918,0.008,1.639,1.538,1.639c1.543,0,1.532-0.721,1.532-1.669
			v-3.302h0.989v3.281c0,1.708-0.29,2.614-2.521,2.614C60.94,44.606,60.618,43.7,60.618,42.025z"/>
		<path fill="#0691D0" d="M66.71,38.711h1.05l0.18-1.646l0.802-0.154v1.801h1.531v0.916h-1.531v3.157
			c0,0.51,0.062,0.823,0.831,0.823h0.7v0.896c-0.126,0.01-0.721,0.01-0.876,0.01c-1.375,0-1.666-0.521-1.666-1.594v-3.293H66.71
			V38.711z"/>
		<path fill="#0691D0" d="M71.479,42.025v-3.314h1.012v3.332c0,0.918,0.01,1.639,1.541,1.639c1.541,0,1.532-0.721,1.532-1.669
			v-3.302h0.987v3.281c0,1.708-0.291,2.614-2.52,2.614S71.479,43.7,71.479,42.025z"/>
		<path fill="#0691D0" d="M78.02,38.766l0.803-0.055l0.103,0.707c0.23-0.413,0.938-0.758,1.958-0.779v1.02
			c-1.396,0.012-1.844,0.73-1.844,1.793v3.053h-1.02V38.766z"/>
		<path fill="#0691D0" d="M81.444,41.598c0-1.979,0.802-3.021,2.853-3.021c2.054,0,2.865,1.043,2.865,3.021s-0.812,3.02-2.865,3.02
			C82.246,44.617,81.444,43.576,81.444,41.598z M86.131,41.617c0-1.331-0.467-2.072-1.834-2.072c-1.364,0-1.831,0.741-1.831,2.072
			c0,1.334,0.467,2.083,1.831,2.083C85.664,43.7,86.131,42.951,86.131,41.617z"/>
		<path fill="#0691D0" d="M90.776,38.766l0.8-0.055l0.085,0.552c0.271-0.363,0.823-0.687,2.133-0.687
			c1.835,0,2.087,0.969,2.087,2.395v3.533H94.87v-3.333c0-0.939-0.085-1.595-1.397-1.595c-1.426,0-1.678,0.719-1.678,1.719v3.209
			h-1.019V38.766z"/>
		<path fill="#0691D0" d="M97.077,41.598c0-1.979,0.801-3.021,2.854-3.021c2.05,0,2.864,1.043,2.864,3.021s-0.814,3.02-2.864,3.02
			C97.878,44.617,97.077,43.576,97.077,41.598z M101.763,41.617c0-1.331-0.468-2.072-1.832-2.072c-1.366,0-1.835,0.741-1.835,2.072
			c0,1.334,0.469,2.083,1.835,2.083C101.295,43.7,101.763,42.951,101.763,41.617z"/>
		<path fill="#0691D0" d="M105.918,43.93l0.52-0.792c0.668,0.427,1.416,0.584,2.043,0.584c0.988,0,1.395-0.157,1.395-0.854
			c0-0.553-0.365-0.666-1.395-0.842c-1.365-0.242-2.271-0.471-2.271-1.794c0-1.052,0.615-1.655,2.271-1.655
			c0.896,0,1.654,0.189,2.208,0.51l-0.479,0.831c-0.44-0.235-1.034-0.403-1.708-0.403c-1.012,0-1.283,0.271-1.283,0.718
			c0,0.542,0.354,0.679,1.302,0.843c1.427,0.262,2.335,0.45,2.335,1.752c0,1.323-0.73,1.78-2.439,1.78
			C107.595,44.606,106.697,44.449,105.918,43.93z"/>
		<path fill="#0691D0" d="M111.707,41.598c0-1.979,0.805-3.021,2.854-3.021c2.053,0,2.866,1.043,2.866,3.021s-0.813,3.02-2.867,3.02
			C112.512,44.617,111.707,43.576,111.707,41.598z M116.396,41.617c0-1.333-0.469-2.072-1.835-2.072
			c-1.363,0-1.832,0.741-1.832,2.072c0,1.334,0.469,2.083,1.831,2.083C115.927,43.7,116.396,42.951,116.396,41.617z"/>
		<path fill="#0691D0" d="M118.706,43v-6.579h0.999v6.468c0,0.541,0.084,0.719,0.647,0.719c0.009,0,0.207,0,0.228,0v0.885
			c-0.094,0.012-0.322,0.021-0.572,0.021C119.039,44.514,118.706,44.105,118.706,43z"/>
		<path fill="#0691D0" d="M121.257,41.598c0-1.979,0.802-3.021,2.853-3.021c2.053,0,2.866,1.043,2.866,3.021s-0.813,3.02-2.866,3.02
			C122.059,44.617,121.257,43.576,121.257,41.598z M125.942,41.617c0-1.333-0.467-2.072-1.833-2.072
			c-1.361,0-1.834,0.739-1.834,2.072c0,1.334,0.473,2.083,1.834,2.083C125.473,43.7,125.942,42.951,125.942,41.617z"/>
		<path fill="#0691D0" d="M130.098,43.93l0.519-0.792c0.669,0.427,1.418,0.584,2.043,0.584c0.99,0,1.396-0.157,1.396-0.854
			c0-0.553-0.365-0.666-1.396-0.842c-1.364-0.242-2.27-0.471-2.27-1.794c0-1.052,0.616-1.655,2.27-1.655
			c0.897,0,1.657,0.189,2.207,0.51l-0.477,0.831c-0.438-0.235-1.031-0.403-1.71-0.403c-1.01,0-1.28,0.271-1.28,0.718
			c0,0.542,0.356,0.679,1.302,0.843c1.427,0.262,2.333,0.45,2.333,1.752c0,1.323-0.729,1.78-2.437,1.78
			C131.773,44.606,130.879,44.449,130.098,43.93z"/>
		<path fill="#0691D0" d="M135.866,41.598c0-1.667,0.51-3.021,2.821-3.021c2.385,0,2.468,1.655,2.437,3.416h-4.28
			c0.062,1.052,0.429,1.749,1.864,1.749c0.937,0,1.397-0.237,1.845-0.571l0.54,0.707c-0.612,0.48-1.291,0.74-2.385,0.74
			C136.333,44.617,135.866,43.273,135.866,41.598z M136.855,41.096h3.312c-0.052-0.915-0.135-1.623-1.511-1.623
			C137.334,39.473,136.938,40.117,136.855,41.096z"/>
		<path fill="#0691D0" d="M144.844,36.785h1.018v1.23h-1.018V36.785z M144.851,38.709h1.003v5.795h-1.003V38.709z"/>
		<path fill="#0691D0" d="M147.414,38.766l0.801-0.057l0.085,0.554c0.229-0.376,0.81-0.687,2.074-0.687
			c1.228,0,1.613,0.301,1.769,0.729c0.271-0.418,0.918-0.729,2.219-0.729c1.832,0,2.03,0.969,2.03,2.395v3.533h-1.019v-3.333
			c0-0.939-0.031-1.597-1.333-1.597c-1.428,0-1.636,0.721-1.636,1.721v3.209h-1v-3.333c0-0.939-0.043-1.597-1.345-1.597
			c-1.429,0-1.623,0.721-1.623,1.721v3.209h-1.022V38.766z"/>
		<path fill="#0691D0" d="M157.506,42.855c0-1.645,0.927-2.125,3.823-2.125h0.312c-0.021-0.83-0.219-1.207-1.448-1.207
			c-0.729,0-1.343,0.262-1.709,0.49l-0.531-0.791c0.388-0.262,1.304-0.646,2.335-0.646c1.977,0,2.331,0.678,2.331,2.322v2.062
			c0,0.562,0.044,0.646,0.574,0.646v0.885c-0.074,0.021-0.21,0.021-0.417,0.021c-0.636,0-0.844-0.178-0.99-0.656
			c-0.343,0.487-0.968,0.749-2.207,0.749C157.91,44.606,157.506,43.836,157.506,42.855z M161.641,41.951v-0.354h-0.26
			c-2.387,0-2.907,0.27-2.907,1.187c0,0.614,0.283,0.947,1.271,0.947C161.088,43.731,161.641,43.19,161.641,41.951z"/>
		<path fill="#0691D0" d="M165.584,42.314c-0.081,0.105-0.134,0.229-0.134,0.354c0,0.346,0.24,0.396,1.156,0.396
			c2.164,0,2.833,0.365,2.833,1.531c0,1.24-0.803,1.771-2.928,1.771c-1.946,0-2.761-0.271-2.761-1.437
			c0-0.656,0.241-1.239,1.106-1.417c-0.229-0.157-0.324-0.385-0.324-0.699c0-0.28,0.095-0.571,0.26-0.801
			c-0.479-0.3-0.708-0.791-0.708-1.489c0-1.292,0.73-1.947,2.459-1.947c0.124,0,0.251,0,0.374,0.011l2.282-0.324v0.833h-0.94
			c0.482,0.264,0.752,0.689,0.752,1.428c0,1.282-0.76,1.863-2.468,1.863C166.18,42.387,165.868,42.369,165.584,42.314z
			 M168.421,44.648c0-0.604-0.471-0.729-1.877-0.729c-1.573,0-1.77,0.363-1.77,0.843c0,0.614,0.499,0.802,1.77,0.802
			C168.065,45.564,168.421,45.241,168.421,44.648z M168.012,40.523c0-0.738-0.48-1.033-1.468-1.033
			c-1.073,0-1.479,0.295-1.479,1.033c0,0.721,0.405,1.031,1.479,1.031C167.615,41.555,168.012,41.244,168.012,40.523z"/>
		<path fill="#0691D0" d="M170.636,36.785h1.021v1.23h-1.021V36.785z M170.646,38.709h1.001v5.795h-1.001V38.709z"/>
		<path fill="#0691D0" d="M173.209,38.766l0.8-0.057l0.085,0.554c0.271-0.363,0.823-0.687,2.135-0.687
			c1.836,0,2.083,0.969,2.083,2.395v3.533h-1.009v-3.333c0-0.939-0.085-1.597-1.397-1.597c-1.427,0-1.677,0.721-1.677,1.721v3.209
			h-1.02V38.766z"/>
		<path fill="#0691D0" d="M179.444,42.855c0-1.645,0.928-2.125,3.825-2.125h0.311c-0.018-0.83-0.219-1.207-1.449-1.207
			c-0.728,0-1.341,0.262-1.705,0.49l-0.529-0.791c0.381-0.262,1.299-0.646,2.331-0.646c1.979,0,2.333,0.678,2.333,2.322v2.062
			c0,0.562,0.041,0.646,0.574,0.646v0.885c-0.074,0.021-0.209,0.021-0.418,0.021c-0.635,0-0.843-0.178-0.989-0.656
			c-0.345,0.487-0.969,0.749-2.211,0.749C179.853,44.606,179.444,43.836,179.444,42.855z M183.58,41.951v-0.354h-0.26
			c-2.386,0-2.907,0.27-2.907,1.187c0,0.614,0.282,0.947,1.271,0.947C183.029,43.731,183.58,43.19,183.58,41.951z"/>
		<path fill="#0691D0" d="M186.226,45.324c0.52-0.281,0.646-0.414,0.646-0.82h-0.625v-1.376h1.271v1.021
			c0,0.978-0.168,1.3-1.021,1.708L186.226,45.324z"/>
		<path fill="#0691D0" d="M190.756,43.93l0.521-0.792c0.666,0.427,1.415,0.584,2.04,0.584c0.988,0,1.395-0.157,1.395-0.854
			c0-0.553-0.363-0.666-1.395-0.842c-1.363-0.242-2.271-0.471-2.271-1.794c0-1.052,0.613-1.655,2.271-1.655
			c0.896,0,1.657,0.189,2.209,0.51l-0.479,0.831c-0.438-0.235-1.03-0.403-1.706-0.403c-1.014,0-1.284,0.271-1.284,0.718
			c0,0.542,0.354,0.679,1.305,0.843c1.427,0.262,2.332,0.45,2.332,1.752c0,1.323-0.729,1.78-2.437,1.78
			C192.432,44.606,191.536,44.449,190.756,43.93z"/>
		<path fill="#0691D0" d="M196.881,36.785h1.016v1.23h-1.016V36.785z M196.888,38.709h1.001v5.795h-1.001V38.709z"/>
		<path fill="#0691D0" d="M199.453,38.766l0.8-0.057l0.083,0.554c0.27-0.363,0.823-0.687,2.136-0.687
			c1.833,0,2.084,0.969,2.084,2.395v3.533h-1.012v-3.333c0-0.939-0.082-1.597-1.395-1.597c-1.429,0-1.679,0.721-1.679,1.721v3.209
			h-1.018V38.766z"/>
		<path fill="#0691D0" d="M205.75,41.598c0-1.979,0.802-3.021,2.855-3.021c2.053,0,2.863,1.043,2.863,3.021s-0.811,3.02-2.863,3.02
			C206.552,44.617,205.75,43.576,205.75,41.598z M210.438,41.617c0-1.333-0.47-2.072-1.833-2.072c-1.364,0-1.832,0.739-1.832,2.072
			c0,1.334,0.468,2.083,1.832,2.083C209.969,43.7,210.438,42.951,210.438,41.617z"/>
		<path fill="#0691D0" d="M214.59,43.93l0.525-0.792c0.662,0.427,1.414,0.584,2.037,0.584c0.992,0,1.396-0.157,1.396-0.854
			c0-0.553-0.362-0.666-1.396-0.842c-1.362-0.242-2.267-0.471-2.267-1.794c0-1.052,0.613-1.655,2.267-1.655
			c0.898,0,1.66,0.189,2.212,0.51l-0.48,0.831c-0.438-0.235-1.031-0.403-1.708-0.403c-1.012,0-1.281,0.271-1.281,0.718
			c0,0.542,0.354,0.679,1.301,0.843c1.428,0.262,2.334,0.45,2.334,1.752c0,1.323-0.729,1.78-2.438,1.78
			C216.271,44.606,215.373,44.449,214.59,43.93z"/>
		<path fill="#0691D0" d="M220.361,41.598c0-1.667,0.508-3.021,2.821-3.021c2.386,0,2.47,1.655,2.438,3.416h-4.281
			c0.062,1.052,0.427,1.749,1.864,1.749c0.938,0,1.395-0.237,1.844-0.571l0.542,0.707c-0.614,0.48-1.292,0.74-2.386,0.74
			C220.826,44.617,220.361,43.273,220.361,41.598z M221.347,41.096h3.313c-0.051-0.915-0.132-1.623-1.51-1.623
			C221.83,39.473,221.433,40.117,221.347,41.096z"/>
		<path fill="#0691D0" d="M229.004,41.598c0-1.795,0.592-3.021,2.863-3.021c1.029,0,1.709,0.364,2.156,0.865l-0.738,0.697
			c-0.271-0.281-0.677-0.584-1.418-0.584c-1.428,0-1.842,0.771-1.842,2.062c0,1.294,0.394,2.083,1.842,2.083
			c0.625,0,1.029-0.196,1.47-0.594l0.674,0.646c-0.589,0.553-1.163,0.854-2.185,0.854C229.608,44.606,229.004,43.387,229.004,41.598
			z"/>
		<path fill="#0691D0" d="M235.21,38.766l0.804-0.057l0.102,0.709c0.23-0.416,0.939-0.758,1.959-0.779v1.02
			c-1.396,0.012-1.844,0.73-1.844,1.793v3.053h-1.021V38.766z"/>
		<path fill="#0691D0" d="M238.634,41.598c0-1.667,0.511-3.021,2.824-3.021c2.384,0,2.469,1.655,2.435,3.416h-4.279
			c0.063,1.052,0.429,1.749,1.865,1.749c0.938,0,1.394-0.237,1.847-0.571l0.536,0.707c-0.611,0.48-1.29,0.74-2.383,0.74
			C239.103,44.617,238.634,43.273,238.634,41.598z M239.625,41.096h3.312c-0.052-0.915-0.137-1.623-1.51-1.623
			C240.104,39.473,239.707,40.117,239.625,41.096z"/>
		<path fill="#0691D0" d="M244.691,42.855c0-1.645,0.93-2.125,3.824-2.125h0.312c-0.021-0.83-0.219-1.207-1.447-1.207
			c-0.729,0-1.346,0.262-1.707,0.49l-0.532-0.791c0.386-0.262,1.304-0.646,2.331-0.646c1.98,0,2.335,0.678,2.335,2.322v2.062
			c0,0.562,0.04,0.646,0.573,0.646v0.885c-0.073,0.021-0.208,0.021-0.418,0.021c-0.637,0-0.843-0.178-0.988-0.656
			c-0.344,0.487-0.969,0.749-2.211,0.749C245.101,44.606,244.691,43.836,244.691,42.855z M248.828,41.951v-0.354h-0.26
			c-2.389,0-2.904,0.27-2.904,1.187c0,0.614,0.28,0.947,1.268,0.947C248.275,43.731,248.828,43.19,248.828,41.951z"/>
		<path fill="#0691D0" d="M251.494,43.128h1.27v1.376h-1.27V43.128z"/>
	</g>
	<g>
		<path fill="#FCE400" d="M246.096,9.559h6.304l-12.978,23.227h-6.302L246.096,9.559z"/>
		<path fill="#FCE400" d="M259.723,9.559h6.301l-12.973,23.227h-6.303L259.723,9.559z"/>
	</g>
</g>
</svg>
